<mxfile host="app.diagrams.net" agent="Mozilla/5.0 (Windows NT 10.0; Win64; x64; rv:131.0) Gecko/20100101 Firefox/131.0" version="24.7.17">
  <diagram name="Page-1" id="3RlztuBvmJlQ_3YMpiWf">
    <mxGraphModel dx="2074" dy="2214" grid="1" gridSize="10" guides="1" tooltips="1" connect="1" arrows="1" fold="1" page="1" pageScale="1" pageWidth="850" pageHeight="1100" background="#0D1117" math="0" shadow="0">
      <root>
        <mxCell id="0" />
        <mxCell id="1" parent="0" />
        <mxCell id="qAYZ5E4fQaRt8hyqv8FD-86" value="" style="rounded=0;whiteSpace=wrap;html=1;dashed=0;sketch=0;pointerEvents=1;strokeColor=#F0F6FC;align=center;verticalAlign=top;fontFamily=Helvetica;fontSize=12;fontColor=#f0f6fc;fontStyle=0;labelBackgroundColor=#0d1117;fillColor=none;gradientColor=none;" parent="1" vertex="1">
          <mxGeometry x="410" y="-930" width="300" height="140" as="geometry" />
        </mxCell>
        <mxCell id="qAYZ5E4fQaRt8hyqv8FD-88" style="edgeStyle=orthogonalEdgeStyle;rounded=0;orthogonalLoop=1;jettySize=auto;html=1;fontFamily=Helvetica;fontSize=12;fontColor=#f0f6fc;fontStyle=0;labelBackgroundColor=#0d1117;strokeColor=#F0F6FC;" parent="1" source="qAYZ5E4fQaRt8hyqv8FD-40" target="qAYZ5E4fQaRt8hyqv8FD-63" edge="1">
          <mxGeometry relative="1" as="geometry">
            <Array as="points">
              <mxPoint x="230" y="-1020" />
              <mxPoint x="230" y="-1020" />
            </Array>
          </mxGeometry>
        </mxCell>
        <mxCell id="qAYZ5E4fQaRt8hyqv8FD-40" value="superadmin" style="outlineConnect=0;dashed=0;verticalLabelPosition=bottom;verticalAlign=top;align=center;html=1;shape=mxgraph.aws3.iam;fillColor=#759C3E;gradientColor=none;sketch=0;pointerEvents=1;strokeColor=#F0F6FC;fontFamily=Helvetica;fontSize=12;fontColor=#F0F6FC;fontStyle=0;labelBackgroundColor=#0D1117;strokeWidth=1;" parent="1" vertex="1">
          <mxGeometry x="160" y="-1060" width="40" height="80" as="geometry" />
        </mxCell>
        <mxCell id="qAYZ5E4fQaRt8hyqv8FD-52" value="Account Management" style="sketch=0;points=[[0,0,0],[0.25,0,0],[0.5,0,0],[0.75,0,0],[1,0,0],[0,1,0],[0.25,1,0],[0.5,1,0],[0.75,1,0],[1,1,0],[0,0.25,0],[0,0.5,0],[0,0.75,0],[1,0.25,0],[1,0.5,0],[1,0.75,0]];points=[[0,0,0],[0.25,0,0],[0.5,0,0],[0.75,0,0],[1,0,0],[0,1,0],[0.25,1,0],[0.5,1,0],[0.75,1,0],[1,1,0],[0,0.25,0],[0,0.5,0],[0,0.75,0],[1,0.25,0],[1,0.5,0],[1,0.75,0]];outlineConnect=0;fontColor=#F0F6FC;fillColor=#E7157B;strokeColor=#F0F6FC;dashed=0;verticalLabelPosition=bottom;verticalAlign=top;align=center;html=1;fontSize=12;fontStyle=0;aspect=fixed;shape=mxgraph.aws4.resourceIcon;resIcon=mxgraph.aws4.organizations;pointerEvents=1;fontFamily=Helvetica;labelBackgroundColor=#0D1117;strokeWidth=1;" parent="1" vertex="1">
          <mxGeometry x="440" y="-1060" width="80" height="80" as="geometry" />
        </mxCell>
        <mxCell id="qAYZ5E4fQaRt8hyqv8FD-54" value="IAM Roles and Policies" style="sketch=0;outlineConnect=0;fontColor=#F0F6FC;gradientColor=none;fillColor=#DD344C;strokeColor=#F0F6FC;dashed=0;verticalLabelPosition=bottom;verticalAlign=top;align=center;html=1;fontSize=12;fontStyle=0;aspect=fixed;pointerEvents=1;shape=mxgraph.aws4.permissions;fontFamily=Helvetica;labelBackgroundColor=#0D1117;strokeWidth=1;" parent="1" vertex="1">
          <mxGeometry x="608.21" y="-1060" width="63.59" height="80" as="geometry" />
        </mxCell>
        <mxCell id="qAYZ5E4fQaRt8hyqv8FD-55" value="VPC" style="outlineConnect=0;dashed=0;verticalLabelPosition=bottom;verticalAlign=top;align=center;html=1;shape=mxgraph.aws3.virtual_private_cloud;fillColor=#F58534;gradientColor=none;sketch=0;pointerEvents=1;strokeColor=#F0F6FC;fontFamily=Helvetica;fontSize=12;fontColor=#F0F6FC;fontStyle=0;labelBackgroundColor=#0D1117;strokeWidth=1;" parent="1" vertex="1">
          <mxGeometry x="435" y="-890" width="90" height="60" as="geometry" />
        </mxCell>
        <mxCell id="qAYZ5E4fQaRt8hyqv8FD-56" value="&lt;div&gt;EKS&lt;/div&gt;" style="sketch=0;points=[[0,0,0],[0.25,0,0],[0.5,0,0],[0.75,0,0],[1,0,0],[0,1,0],[0.25,1,0],[0.5,1,0],[0.75,1,0],[1,1,0],[0,0.25,0],[0,0.5,0],[0,0.75,0],[1,0.25,0],[1,0.5,0],[1,0.75,0]];outlineConnect=0;fontColor=#F0F6FC;fillColor=#ED7100;strokeColor=#F0F6FC;dashed=0;verticalLabelPosition=bottom;verticalAlign=top;align=center;html=1;fontSize=12;fontStyle=0;aspect=fixed;shape=mxgraph.aws4.resourceIcon;resIcon=mxgraph.aws4.eks;pointerEvents=1;fontFamily=Helvetica;labelBackgroundColor=#0D1117;strokeWidth=1;" parent="1" vertex="1">
          <mxGeometry x="600" y="-900" width="80" height="80" as="geometry" />
        </mxCell>
        <mxCell id="qAYZ5E4fQaRt8hyqv8FD-58" value="Username" style="fillColor=none;strokeColor=none;html=1;fontSize=11;fontStyle=0;align=left;fontColor=#F0F6FC;fontStyle=1;fontSize=11;dashed=0;sketch=0;pointerEvents=1;verticalAlign=top;fontFamily=Helvetica;labelBackgroundColor=#0D1117;strokeWidth=1;" parent="1" vertex="1">
          <mxGeometry x="240" y="-745.5" width="79" height="20" as="geometry" />
        </mxCell>
        <mxCell id="qAYZ5E4fQaRt8hyqv8FD-59" value="••••••••" style="rounded=1;arcSize=9;align=left;spacingLeft=5;strokeColor=#F0F6FC;html=1;strokeWidth=1;fontSize=12;dashed=0;sketch=0;pointerEvents=1;verticalAlign=top;fontFamily=Helvetica;fontColor=#F0F6FC;fontStyle=0;labelBackgroundColor=#0D1117;fillColor=#759C3E;gradientColor=none;" parent="1" vertex="1">
          <mxGeometry x="240" y="-725.5" width="79" height="25" as="geometry" />
        </mxCell>
        <mxCell id="qAYZ5E4fQaRt8hyqv8FD-60" value="Password" style="fillColor=none;strokeColor=none;html=1;fontSize=11;fontStyle=0;align=left;fontColor=#F0F6FC;fontStyle=1;fontSize=11;dashed=0;sketch=0;pointerEvents=1;verticalAlign=top;fontFamily=Helvetica;labelBackgroundColor=#0D1117;strokeWidth=1;" parent="1" vertex="1">
          <mxGeometry x="238" y="-705.5" width="81" height="20" as="geometry" />
        </mxCell>
        <mxCell id="qAYZ5E4fQaRt8hyqv8FD-89" style="edgeStyle=orthogonalEdgeStyle;rounded=0;orthogonalLoop=1;jettySize=auto;html=1;entryX=0;entryY=0.5;entryDx=0;entryDy=0;fontFamily=Helvetica;fontSize=12;fontColor=#f0f6fc;fontStyle=0;labelBackgroundColor=#0d1117;strokeColor=#F0F6FC;" parent="1" source="qAYZ5E4fQaRt8hyqv8FD-63" target="qAYZ5E4fQaRt8hyqv8FD-85" edge="1">
          <mxGeometry relative="1" as="geometry">
            <Array as="points">
              <mxPoint x="310" y="-1020" />
              <mxPoint x="310" y="-1020" />
            </Array>
          </mxGeometry>
        </mxCell>
        <mxCell id="qAYZ5E4fQaRt8hyqv8FD-63" value="IAM Key / Secret" style="outlineConnect=0;dashed=0;verticalLabelPosition=bottom;verticalAlign=top;align=center;html=1;shape=mxgraph.aws3.long_term_security_credential;fillColor=#B3B3B3;gradientColor=none;sketch=0;pointerEvents=1;strokeColor=#F0F6FC;fontFamily=Helvetica;fontSize=12;fontColor=#F0F6FC;fontStyle=0;labelBackgroundColor=#0D1117;strokeWidth=1;" parent="1" vertex="1">
          <mxGeometry x="244" y="-1044" width="70" height="54" as="geometry" />
        </mxCell>
        <mxCell id="qAYZ5E4fQaRt8hyqv8FD-87" style="edgeStyle=orthogonalEdgeStyle;rounded=0;orthogonalLoop=1;jettySize=auto;html=1;fontFamily=Helvetica;fontSize=12;fontColor=#f0f6fc;fontStyle=0;labelBackgroundColor=#0d1117;strokeColor=#F0F6FC;" parent="1" source="qAYZ5E4fQaRt8hyqv8FD-64" target="qAYZ5E4fQaRt8hyqv8FD-40" edge="1">
          <mxGeometry relative="1" as="geometry" />
        </mxCell>
        <mxCell id="qAYZ5E4fQaRt8hyqv8FD-64" value="Repo" style="image;sketch=0;aspect=fixed;html=1;points=[];align=center;fontSize=12;image=img/lib/mscae/Azure_Repos.svg;dashed=0;pointerEvents=1;strokeColor=#F0F6FC;verticalAlign=top;fontFamily=Helvetica;fontColor=#F0F6FC;fontStyle=0;labelBackgroundColor=#0D1117;fillColor=#759C3E;gradientColor=none;strokeWidth=1;" parent="1" vertex="1">
          <mxGeometry x="44" y="-1060" width="72" height="80" as="geometry" />
        </mxCell>
        <mxCell id="qAYZ5E4fQaRt8hyqv8FD-81" style="edgeStyle=orthogonalEdgeStyle;rounded=0;orthogonalLoop=1;jettySize=auto;html=1;fontFamily=Helvetica;fontSize=12;fontColor=#f0f6fc;fontStyle=0;labelBackgroundColor=#0d1117;strokeWidth=1;strokeColor=#F0F6FC;" parent="1" source="qAYZ5E4fQaRt8hyqv8FD-68" target="qAYZ5E4fQaRt8hyqv8FD-69" edge="1">
          <mxGeometry relative="1" as="geometry" />
        </mxCell>
        <mxCell id="qAYZ5E4fQaRt8hyqv8FD-68" value="automation" style="outlineConnect=0;dashed=0;verticalLabelPosition=bottom;verticalAlign=top;align=center;html=1;shape=mxgraph.aws3.iam;fillColor=#759C3E;gradientColor=none;sketch=0;pointerEvents=1;strokeColor=#F0F6FC;fontFamily=Helvetica;fontSize=12;fontColor=#F0F6FC;fontStyle=0;labelBackgroundColor=#0D1117;strokeWidth=1;" parent="1" vertex="1">
          <mxGeometry x="160" y="-900" width="40" height="80" as="geometry" />
        </mxCell>
        <mxCell id="qAYZ5E4fQaRt8hyqv8FD-90" style="edgeStyle=orthogonalEdgeStyle;rounded=0;orthogonalLoop=1;jettySize=auto;html=1;entryX=0;entryY=0.5;entryDx=0;entryDy=0;fontFamily=Helvetica;fontSize=12;fontColor=#f0f6fc;fontStyle=0;labelBackgroundColor=#0d1117;strokeColor=#F0F6FC;" parent="1" source="qAYZ5E4fQaRt8hyqv8FD-69" target="qAYZ5E4fQaRt8hyqv8FD-86" edge="1">
          <mxGeometry relative="1" as="geometry" />
        </mxCell>
        <mxCell id="qAYZ5E4fQaRt8hyqv8FD-69" value="IAM Key / Secret" style="outlineConnect=0;dashed=0;verticalLabelPosition=bottom;verticalAlign=top;align=center;html=1;shape=mxgraph.aws3.long_term_security_credential;fillColor=#B3B3B3;gradientColor=none;sketch=0;pointerEvents=1;strokeColor=#F0F6FC;fontFamily=Helvetica;fontSize=12;fontColor=#F0F6FC;fontStyle=0;labelBackgroundColor=#0D1117;strokeWidth=1;" parent="1" vertex="1">
          <mxGeometry x="244" y="-887" width="70" height="54" as="geometry" />
        </mxCell>
        <mxCell id="qAYZ5E4fQaRt8hyqv8FD-78" style="edgeStyle=orthogonalEdgeStyle;rounded=0;orthogonalLoop=1;jettySize=auto;html=1;fontFamily=Helvetica;fontSize=12;fontColor=#f0f6fc;fontStyle=0;labelBackgroundColor=#0d1117;strokeWidth=1;strokeColor=#F0F6FC;" parent="1" source="qAYZ5E4fQaRt8hyqv8FD-70" target="qAYZ5E4fQaRt8hyqv8FD-68" edge="1">
          <mxGeometry relative="1" as="geometry" />
        </mxCell>
        <mxCell id="qAYZ5E4fQaRt8hyqv8FD-70" value="Repo" style="image;sketch=0;aspect=fixed;html=1;points=[];align=center;fontSize=12;image=img/lib/mscae/Azure_Repos.svg;dashed=0;pointerEvents=1;strokeColor=#F0F6FC;verticalAlign=top;fontFamily=Helvetica;fontColor=#F0F6FC;fontStyle=0;labelBackgroundColor=#0D1117;fillColor=#759C3E;gradientColor=none;strokeWidth=1;" parent="1" vertex="1">
          <mxGeometry x="44" y="-900" width="72" height="80" as="geometry" />
        </mxCell>
        <mxCell id="qAYZ5E4fQaRt8hyqv8FD-98" style="edgeStyle=orthogonalEdgeStyle;rounded=0;orthogonalLoop=1;jettySize=auto;html=1;entryX=0;entryY=0.25;entryDx=0;entryDy=0;fontFamily=Helvetica;fontSize=12;fontColor=#f0f6fc;fontStyle=0;labelBackgroundColor=#0d1117;strokeColor=#F0F6FC;" parent="1" source="qAYZ5E4fQaRt8hyqv8FD-71" target="qAYZ5E4fQaRt8hyqv8FD-60" edge="1">
          <mxGeometry relative="1" as="geometry">
            <Array as="points">
              <mxPoint x="237" y="-700" />
            </Array>
          </mxGeometry>
        </mxCell>
        <mxCell id="qAYZ5E4fQaRt8hyqv8FD-71" value="AWS SSO AD" style="image;aspect=fixed;html=1;points=[];align=center;fontSize=12;image=img/lib/azure2/general/Browser.svg;dashed=0;sketch=0;pointerEvents=1;strokeColor=#F0F6FC;verticalAlign=top;fontFamily=Helvetica;fontColor=#f0f6fc;fontStyle=0;labelBackgroundColor=#0d1117;fillColor=#759C3E;gradientColor=none;strokeWidth=1;" parent="1" vertex="1">
          <mxGeometry x="142" y="-730" width="75" height="60" as="geometry" />
        </mxCell>
        <mxCell id="qAYZ5E4fQaRt8hyqv8FD-75" value="••••••••" style="rounded=1;arcSize=9;align=left;spacingLeft=5;strokeColor=#F0F6FC;html=1;strokeWidth=1;fontSize=12;dashed=0;sketch=0;pointerEvents=1;verticalAlign=top;fontFamily=Helvetica;fontColor=#F0F6FC;fontStyle=0;labelBackgroundColor=#0D1117;fillColor=#759C3E;gradientColor=none;" parent="1" vertex="1">
          <mxGeometry x="240" y="-685.5" width="79" height="25" as="geometry" />
        </mxCell>
        <mxCell id="qAYZ5E4fQaRt8hyqv8FD-76" value="AWS Account" style="points=[[0,0],[0.25,0],[0.5,0],[0.75,0],[1,0],[1,0.25],[1,0.5],[1,0.75],[1,1],[0.75,1],[0.5,1],[0.25,1],[0,1],[0,0.75],[0,0.5],[0,0.25]];outlineConnect=0;gradientColor=none;html=1;whiteSpace=wrap;fontSize=12;fontStyle=0;container=1;pointerEvents=0;collapsible=0;recursiveResize=0;shape=mxgraph.aws4.group;grIcon=mxgraph.aws4.group_account;strokeColor=#F0F6FC;fillColor=none;verticalAlign=top;align=left;spacingLeft=30;fontColor=#F0F6FC;dashed=0;sketch=0;fontFamily=Helvetica;labelBackgroundColor=#0d1117;strokeWidth=1;" parent="1" vertex="1">
          <mxGeometry x="450" y="-770" width="140" height="140" as="geometry" />
        </mxCell>
        <mxCell id="qAYZ5E4fQaRt8hyqv8FD-67" value="Role Assume" style="outlineConnect=0;dashed=0;verticalLabelPosition=bottom;verticalAlign=top;align=center;html=1;shape=mxgraph.aws3.role;fillColor=#759C3E;gradientColor=none;sketch=0;pointerEvents=1;strokeColor=#F0F6FC;fontFamily=Helvetica;fontSize=12;fontColor=#F0F6FC;fontStyle=0;labelBackgroundColor=#0D1117;strokeWidth=1;" parent="qAYZ5E4fQaRt8hyqv8FD-76" vertex="1">
          <mxGeometry x="29.999999999999954" y="35" width="80" height="70" as="geometry" />
        </mxCell>
        <mxCell id="qAYZ5E4fQaRt8hyqv8FD-85" value="" style="rounded=0;whiteSpace=wrap;html=1;dashed=0;sketch=0;pointerEvents=1;strokeColor=#F0F6FC;align=center;verticalAlign=top;fontFamily=Helvetica;fontSize=12;fontColor=#f0f6fc;fontStyle=0;labelBackgroundColor=#0d1117;fillColor=none;gradientColor=none;" parent="1" vertex="1">
          <mxGeometry x="410" y="-1090" width="300" height="140" as="geometry" />
        </mxCell>
        <mxCell id="qAYZ5E4fQaRt8hyqv8FD-95" value="User" style="shape=actor;whiteSpace=wrap;html=1;dashed=0;sketch=0;pointerEvents=1;strokeColor=#F0F6FC;align=center;verticalAlign=top;fontFamily=Helvetica;fontSize=12;fontColor=#f0f6fc;fontStyle=0;labelBackgroundColor=#0d1117;fillColor=#759C3E;gradientColor=none;labelPosition=center;verticalLabelPosition=bottom;" parent="1" vertex="1">
          <mxGeometry x="60" y="-730" width="40" height="60" as="geometry" />
        </mxCell>
        <mxCell id="qAYZ5E4fQaRt8hyqv8FD-100" style="edgeStyle=orthogonalEdgeStyle;rounded=0;orthogonalLoop=1;jettySize=auto;html=1;entryX=0;entryY=0.5;entryDx=0;entryDy=0;fontFamily=Helvetica;fontSize=12;fontColor=#f0f6fc;fontStyle=0;labelBackgroundColor=#0d1117;strokeColor=#F0F6FC;" parent="1" source="qAYZ5E4fQaRt8hyqv8FD-96" target="qAYZ5E4fQaRt8hyqv8FD-76" edge="1">
          <mxGeometry relative="1" as="geometry" />
        </mxCell>
        <mxCell id="qAYZ5E4fQaRt8hyqv8FD-96" value="AD Group" style="image;aspect=fixed;html=1;points=[];align=center;fontSize=12;image=img/lib/azure2/identity/Azure_Active_Directory.svg;dashed=0;sketch=0;pointerEvents=1;strokeColor=#F0F6FC;verticalAlign=top;fontFamily=Helvetica;fontColor=#f0f6fc;fontStyle=0;labelBackgroundColor=#0d1117;fillColor=#759C3E;gradientColor=none;" parent="1" vertex="1">
          <mxGeometry x="341.44" y="-735" width="76.56" height="70" as="geometry" />
        </mxCell>
        <mxCell id="qAYZ5E4fQaRt8hyqv8FD-97" style="edgeStyle=orthogonalEdgeStyle;rounded=0;orthogonalLoop=1;jettySize=auto;html=1;entryX=0.002;entryY=0.519;entryDx=0;entryDy=0;entryPerimeter=0;fontFamily=Helvetica;fontSize=12;fontColor=#f0f6fc;fontStyle=0;labelBackgroundColor=#0d1117;strokeColor=#F0F6FC;" parent="1" edge="1">
          <mxGeometry relative="1" as="geometry">
            <mxPoint x="99.85" y="-700.5700000000003" as="sourcePoint" />
            <mxPoint x="141.99999999999997" y="-699.43" as="targetPoint" />
            <Array as="points">
              <mxPoint x="100" y="-699" />
            </Array>
          </mxGeometry>
        </mxCell>
        <mxCell id="qAYZ5E4fQaRt8hyqv8FD-99" style="edgeStyle=orthogonalEdgeStyle;rounded=0;orthogonalLoop=1;jettySize=auto;html=1;entryX=0.009;entryY=0.564;entryDx=0;entryDy=0;entryPerimeter=0;fontFamily=Helvetica;fontSize=12;fontColor=#f0f6fc;fontStyle=0;labelBackgroundColor=#0d1117;strokeColor=#F0F6FC;" parent="1" edge="1">
          <mxGeometry relative="1" as="geometry">
            <mxPoint x="319" y="-700.48" as="sourcePoint" />
            <mxPoint x="342.12904000000003" y="-700.5" as="targetPoint" />
          </mxGeometry>
        </mxCell>
      </root>
    </mxGraphModel>
  </diagram>
</mxfile>
